<?xml version="1.0" standalone="no"?>
<!DOCTYPE svg PUBLIC "-//W3C//DTD SVG 20010904//EN"
 "http://www.w3.org/TR/2001/REC-SVG-20010904/DTD/svg10.dtd">
<svg version="1.0" xmlns="http://www.w3.org/2000/svg"
 width="700.000000pt" height="700.000000pt" viewBox="0 0 700.000000 700.000000"
 preserveAspectRatio="xMidYMid meet">
<metadata>
Created by potrace 1.14, written by Peter Selinger 2001-2017
</metadata>
<g transform="translate(0.000000,700.000000) scale(0.100000,-0.100000)"
fill="#000000" stroke="none">
<path d="M630 6985 c-314 -63 -555 -307 -616 -623 -21 -110 -21 -5614 0 -5724
61 -319 305 -562 624 -624 110 -21 5614 -21 5724 0 107 21 200 59 293 120 174
117 290 293 331 504 21 110 21 5614 0 5724 -62 323 -301 562 -624 624 -105 20
-5631 19 -5732 -1z m4962 -1173 c125 -45 240 -156 290 -280 19 -48 23 -76 23
-177 0 -107 -3 -127 -26 -180 -14 -33 -580 -915 -1258 -1960 -1013 -1563
-1242 -1910 -1291 -1957 -110 -106 -261 -153 -408 -128 -146 24 -160 35 -703
536 -1096 1014 -1012 933 -1060 1028 -38 77 -42 94 -47 179 -3 58 0 115 8 148
32 137 131 259 264 325 75 36 86 39 185 42 122 5 200 -15 286 -72 28 -19 274
-241 549 -495 274 -254 500 -460 502 -458 3 2 481 739 1063 1638 706 1089
1077 1653 1113 1690 101 106 213 151 363 145 59 -2 110 -10 147 -24z"/>
</g>
</svg>
